<svg width="29" height="29" viewBox="0 0 29 29" fill="none" xmlns="http://www.w3.org/2000/svg">
<g clip-path="url(#clip0_169_1301)">
<path d="M14.5575 2.89575C8.17602 2.89575 3.00299 8.06483 3.00299 14.4423C3.00299 20.8198 8.17544 25.9894 14.5575 25.9894C20.9389 25.9894 26.1113 20.8198 26.1113 14.4423V3.8547C26.1113 3.32585 25.6788 2.89575 25.1518 2.89575H14.5575ZM22.4951 14.2835C22.5357 18.7105 18.9743 22.3331 14.5479 22.3764C10.1183 22.4168 6.49277 18.8618 6.45013 14.4342C6.40807 10.0071 9.9663 6.38391 14.3973 6.34209C18.8263 6.2994 22.4524 9.85581 22.496 14.2823L22.4951 14.2835ZM14.4278 8.526C11.177 8.55795 8.57544 11.212 8.60241 14.4557C8.62939 17.6987 11.2852 20.3043 14.529 20.2747C17.7749 20.243 20.382 17.5881 20.3524 14.345C20.3205 11.1011 17.664 8.4958 14.4188 8.526H14.4278ZM14.502 17.3761C12.858 17.3964 11.5129 16.0727 11.4976 14.4316C11.4819 12.7904 12.8017 11.4464 14.4452 11.4261C16.0887 11.4107 17.4343 12.7294 17.4491 14.3726C17.4654 16.0146 16.1456 17.3592 14.5015 17.3752L14.502 17.3761Z" fill="#FFFFFE"/>
</g>
<defs>
<clipPath id="clip0_169_1301">
<rect width="23.1083" height="23.1083" fill="white" transform="matrix(-1 0 0 1 26.1108 2.88843)"/>
</clipPath>
</defs>
</svg>
