<svg width="29" height="29" viewBox="0 0 29 29" fill="none" xmlns="http://www.w3.org/2000/svg">
<path fill-rule="evenodd" clip-rule="evenodd" d="M26.2812 3.625H16.3125L15.6781 3.89688L14.5 5.05687L13.3219 3.89688L12.6875 3.625H2.71875L1.8125 4.53125V22.6562L2.71875 23.5625H12.3069L13.8656 25.1031H15.1344L16.6931 23.5625H26.2812L27.1875 22.6562V4.53125L26.2812 3.625ZM13.5938 22.33L13.2675 22.0219L12.6875 21.75H3.625V5.4375H12.3069L13.6481 6.77875L13.5938 22.33ZM25.375 21.75H16.3125L15.6781 22.0219L15.4244 22.2575V6.70625L16.6931 5.4375H25.375V21.75ZM10.875 9.0625H5.4375V10.875H10.875V9.0625ZM10.875 16.3125H5.4375V18.125H10.875V16.3125ZM5.4375 12.6875H10.875V14.5H5.4375V12.6875ZM23.5625 9.0625H18.125V10.875H23.5625V9.0625ZM18.125 12.6875H23.5625V14.5H18.125V12.6875ZM18.125 16.3125H23.5625V18.125H18.125V16.3125Z" fill="#FFFFFE"/>
</svg>
