<svg width="114" height="100" viewBox="0 0 114 100" fill="none" xmlns="http://www.w3.org/2000/svg">
<g clip-path="url(#clip0_169_750)">
<path d="M113.951 47.5763C103.228 26.6551 82.0007 12.5 57.6944 12.5C33.3882 12.5 12.1546 26.665 1.43797 47.5782C0.985662 48.473 0.75 49.4615 0.75 50.464C0.75 51.4666 0.985662 52.4551 1.43797 53.3498C12.1606 74.271 33.3882 88.4261 57.6944 88.4261C82.0007 88.4261 103.234 74.2611 113.951 53.3478C114.403 52.4531 114.639 51.4646 114.639 50.462C114.639 49.4595 114.403 48.471 113.951 47.5763V47.5763ZM57.6944 78.9353C52.0632 78.9353 46.5583 77.2654 41.8761 74.1369C37.1939 71.0083 33.5445 66.5615 31.3895 61.3589C29.2345 56.1563 28.6706 50.4315 29.7693 44.9084C30.8679 39.3853 33.5796 34.312 37.5615 30.3301C41.5434 26.3482 46.6167 23.6365 52.1398 22.5378C57.6629 21.4392 63.3877 22.0031 68.5903 24.1581C73.7929 26.3131 78.2397 29.9624 81.3683 34.6447C84.4968 39.3269 86.1667 44.8318 86.1667 50.463C86.1685 54.2026 85.4333 57.9058 84.0031 61.3611C82.5729 64.8163 80.4757 67.9558 77.8314 70.6C75.1872 73.2443 72.0477 75.3415 68.5925 76.7717C65.1372 78.2019 61.434 78.9371 57.6944 78.9353V78.9353ZM57.6944 31.4815C56.0002 31.5052 54.3169 31.7573 52.69 32.2309C54.031 34.0533 54.6746 36.2959 54.5039 38.552C54.3332 40.8082 53.3596 42.9285 51.7597 44.5283C50.1599 46.1282 48.0396 47.1018 45.7834 47.2725C43.5273 47.4432 41.2847 46.7996 39.4623 45.4586C38.4246 49.2818 38.6119 53.3341 39.9979 57.0453C41.3839 60.7564 43.8988 63.9395 47.1886 66.1464C50.4784 68.3534 54.3775 69.4732 58.337 69.3481C62.2965 69.223 66.1171 67.8594 69.2611 65.4492C72.405 63.039 74.714 59.7035 75.863 55.9123C77.012 52.1211 76.9431 48.065 75.6662 44.315C74.3892 40.5649 71.9684 37.3097 68.7445 35.0076C65.5206 32.7054 61.6559 31.4722 57.6944 31.4815V31.4815Z" fill="white"/>
</g>
<defs>
<clipPath id="clip0_169_750">
<rect width="112.5" height="100" fill="white" transform="translate(0.75)"/>
</clipPath>
</defs>
</svg>
