<svg width="101" height="101" viewBox="0 0 101 101" fill="none" xmlns="http://www.w3.org/2000/svg">
<path d="M91.4997 28.75C91.9362 28.313 92.2333 27.7564 92.3537 27.1506C92.474 26.5447 92.4122 25.9168 92.1759 25.3462C91.9396 24.7755 91.5395 24.2876 91.0261 23.9442C90.5127 23.6008 89.909 23.4172 89.2913 23.4167H77.833V11.9583C77.8325 11.3407 77.6489 10.737 77.3055 10.2236C76.9621 9.71022 76.4742 9.3101 75.9035 9.0738C75.3328 8.83751 74.7049 8.77563 74.0991 8.89598C73.4933 9.01633 72.9367 9.31351 72.4997 9.75L62.083 20.1667C61.4968 20.7522 61.1671 21.5465 61.1663 22.375V34.1917L52.908 42.45C51.6733 42.1215 50.3797 42.0809 49.1269 42.3312C47.874 42.5815 46.6954 43.1162 45.6818 43.8939C44.6681 44.6716 43.8466 45.6717 43.2804 46.817C42.7143 47.9624 42.4187 49.2224 42.4163 50.5C42.4169 51.6859 42.6706 52.8581 43.1604 53.9382C43.6502 55.0182 44.365 55.9813 45.2568 56.763C46.1487 57.5447 47.1971 58.1271 48.3321 58.4711C49.467 58.8152 50.6623 58.913 51.8381 58.7581C53.0139 58.6032 54.1431 58.1992 55.1502 57.5729C56.1573 56.9466 57.0191 56.1126 57.6781 55.1266C58.3371 54.1406 58.778 53.0253 58.9714 51.8552C59.1649 50.6852 59.1063 49.4873 58.7997 48.3417L67.058 40.0833H78.8747C79.7032 40.0826 80.4975 39.7529 81.083 39.1667L91.4997 28.75ZM50.7497 8.83333C55.6151 8.827 60.4439 9.67457 65.0163 11.3375L59.133 17.2208C58.8747 17.4792 58.633 17.7625 58.4205 18.0542C51.3621 16.3872 43.9526 17.0677 37.3159 19.9926C30.6793 22.9174 25.1776 27.927 21.6456 34.2614C18.1135 40.5958 16.7437 47.9093 17.7441 55.0926C18.7444 62.2759 22.0602 68.9369 27.1886 74.0652C32.3169 79.1936 38.978 82.5094 46.1612 83.5098C53.3445 84.5101 60.658 83.1403 66.9924 79.6083C73.3268 76.0762 78.3364 70.5746 81.2613 63.9379C84.1861 57.3013 84.8667 49.8917 83.1997 42.8333C83.4913 42.6167 83.7705 42.375 84.033 42.1167L89.908 36.2333C91.5722 40.8056 92.4212 45.6343 92.4163 50.5C92.4163 73.5125 73.7622 92.1667 50.7497 92.1667C27.7372 92.1667 9.08301 73.5125 9.08301 50.5C9.08301 27.4875 27.7372 8.83333 50.7497 8.83333ZM50.7497 25.5C52.908 25.5 54.9997 25.775 56.9997 26.2917V32.4667L55.2747 34.1917C55.2054 34.2599 55.1374 34.3294 55.0705 34.4C52.6008 33.7414 50.0129 33.6589 47.5063 34.1588C44.9997 34.6588 42.6415 35.7279 40.6135 37.2836C38.5855 38.8393 36.942 40.8401 35.8097 43.1316C34.6774 45.4231 34.0867 47.944 34.083 50.5C34.0847 52.8717 34.5925 55.2158 35.5726 57.3755C36.5527 59.5352 37.9825 61.4609 39.7663 63.0239C41.5502 64.5869 43.6471 65.7511 45.9169 66.4388C48.1868 67.1265 50.5772 67.3219 52.9286 67.0118C55.2799 66.7017 57.5381 65.8934 59.552 64.6408C61.566 63.3882 63.2894 61.7202 64.6071 59.7482C65.9249 57.7763 66.8066 55.5458 67.1933 53.2058C67.58 50.8658 67.4629 48.4702 66.8497 46.1792L67.058 45.975L68.783 44.25H74.9622C76.2656 49.298 75.9582 54.6273 74.083 59.4919C72.2077 64.3566 68.8586 68.5133 64.5041 71.3804C60.1497 74.2474 55.0078 75.6814 49.798 75.4816C44.5883 75.2818 39.5713 73.4583 35.4492 70.2662C31.3271 67.074 28.3061 62.6731 26.809 57.6791C25.3118 52.6851 25.4135 47.348 27.0996 42.4146C28.7858 37.4812 31.9721 33.1984 36.2127 30.1655C40.4534 27.1326 45.5361 25.5013 50.7497 25.5Z" fill="white"/>
</svg>
