<svg width="32" height="32" viewBox="0 0 32 32" fill="none" xmlns="http://www.w3.org/2000/svg">
<path d="M12.6065 12C13.4129 11.024 14.6337 10.4 16.0001 10.4C17.3665 10.4 18.5873 11.024 19.3937 12C19.9246 12.6437 20.2616 13.4251 20.3652 14.253C20.4689 15.0809 20.335 15.9213 19.9791 16.676C19.6233 17.4307 19.0602 18.0687 18.3556 18.5155C17.6509 18.9624 16.8337 19.1996 15.9993 19.1996C15.1649 19.1996 14.3477 18.9624 13.643 18.5155C12.9384 18.0687 12.3753 17.4307 12.0194 16.676C11.6636 15.9213 11.5297 15.0809 11.6334 14.253C11.737 13.4251 12.074 12.6437 12.6049 12H12.6065ZM22.0001 14.8C22.0001 13.7888 21.7505 12.8352 21.3089 12H28.0001C28.6366 12 29.2471 12.2528 29.6972 12.7029C30.1472 13.153 30.4001 13.7635 30.4001 14.4V15.2C30.4001 17.7392 28.4705 20.3392 25.0961 21.2544C24.7493 20.6315 24.2424 20.1125 23.6277 19.7513C23.0131 19.3901 22.313 19.1998 21.6001 19.2H20.0801C20.6865 18.6389 21.1702 17.9582 21.5007 17.201C21.8311 16.4437 22.0012 15.6262 22.0001 14.8ZM21.6001 20.8C21.9155 20.7991 22.228 20.8606 22.5195 20.9809C22.8111 21.1013 23.076 21.278 23.299 21.501C23.5221 21.7241 23.6988 21.989 23.8191 22.2805C23.9394 22.5721 24.0009 22.8846 24.0001 23.2V24C24.0001 27.1536 21.0241 30.4 16.0001 30.4C10.9761 30.4 8.0001 27.1536 8.0001 24V23.2C7.99925 22.8846 8.06075 22.5721 8.18107 22.2805C8.30138 21.989 8.47813 21.7241 8.70116 21.501C8.92419 21.278 9.1891 21.1013 9.48066 20.9809C9.77222 20.8606 10.0847 20.7991 10.4001 20.8H21.6001ZM1.6001 15.2C1.6001 17.7392 3.5297 20.3392 6.9041 21.2544C7.25087 20.6315 7.75782 20.1125 8.37248 19.7513C8.98714 19.3901 9.68717 19.1998 10.4001 19.2H11.9201C11.3136 18.6389 10.83 17.9582 10.4995 17.201C10.1691 16.4437 9.99903 15.6262 10.0001 14.8C10.0001 13.7888 10.2497 12.8352 10.6929 12H4.0001C3.36358 12 2.75313 12.2528 2.30304 12.7029C1.85295 13.153 1.6001 13.7635 1.6001 14.4V15.2ZM14.0001 5.99998C14.0001 4.83302 13.5365 3.71387 12.7114 2.88871C11.8862 2.06355 10.767 1.59998 9.6001 1.59998C8.43314 1.59998 7.31399 2.06355 6.48883 2.88871C5.66367 3.71387 5.2001 4.83302 5.2001 5.99998C5.2001 7.16693 5.66367 8.28609 6.48883 9.11125C7.31399 9.93641 8.43314 10.4 9.6001 10.4C10.767 10.4 11.8862 9.93641 12.7114 9.11125C13.5365 8.28609 14.0001 7.16693 14.0001 5.99998ZM26.8001 5.99998C26.8001 4.83302 26.3365 3.71387 25.5114 2.88871C24.6862 2.06355 23.567 1.59998 22.4001 1.59998C21.2331 1.59998 20.114 2.06355 19.2888 2.88871C18.4637 3.71387 18.0001 4.83302 18.0001 5.99998C18.0001 7.16693 18.4637 8.28609 19.2888 9.11125C20.114 9.93641 21.2331 10.4 22.4001 10.4C23.567 10.4 24.6862 9.93641 25.5114 9.11125C26.3365 8.28609 26.8001 7.16693 26.8001 5.99998Z" fill="#FFFFFE"/>
</svg>
