<svg width="28" height="22" viewBox="0 0 28 22" fill="none" xmlns="http://www.w3.org/2000/svg">
<path d="M1.99984 0.420044H8.6665C9.02013 0.420044 9.35926 0.56052 9.60931 0.810568C9.85936 1.06062 9.99984 1.39976 9.99984 1.75338V20.42C9.99984 20.7737 9.85936 21.1128 9.60931 21.3629C9.35926 21.6129 9.02013 21.7534 8.6665 21.7534H1.99984C1.64622 21.7534 1.30708 21.6129 1.05703 21.3629C0.80698 21.1128 0.666504 20.7737 0.666504 20.42V1.75338C0.666504 1.39976 0.80698 1.06062 1.05703 0.810568C1.30708 0.56052 1.64622 0.420044 1.99984 0.420044V0.420044ZM1.99984 15.0867V17.7534H4.6665V15.0867H1.99984ZM13.9998 4.42004H24.6665C25.3737 4.42004 26.052 4.701 26.5521 5.20109C27.0522 5.70119 27.3332 6.37947 27.3332 7.08671V15.0867C27.3332 15.794 27.0522 16.4722 26.5521 16.9723C26.052 17.4724 25.3737 17.7534 24.6665 17.7534H13.9998C13.2926 17.7534 12.6143 17.4724 12.1142 16.9723C11.6141 16.4722 11.3332 15.794 11.3332 15.0867V7.08671C11.3332 6.37947 11.6141 5.70119 12.1142 5.20109C12.6143 4.701 13.2926 4.42004 13.9998 4.42004ZM16.6665 19.0867H21.9998C22.3535 19.0867 22.6926 19.2272 22.9426 19.4772C23.1927 19.7273 23.3332 20.0664 23.3332 20.42C23.3332 20.7737 23.1927 21.1128 22.9426 21.3629C22.6926 21.6129 22.3535 21.7534 21.9998 21.7534H16.6665C16.3129 21.7534 15.9737 21.6129 15.7237 21.3629C15.4736 21.1128 15.3332 20.7737 15.3332 20.42C15.3332 20.0664 15.4736 19.7273 15.7237 19.4772C15.9737 19.2272 16.3129 19.0867 16.6665 19.0867V19.0867Z" fill="white"/>
</svg>
