<svg width="30" height="21" viewBox="0 0 30 21" fill="none" xmlns="http://www.w3.org/2000/svg">
<path d="M17.6668 6.70004C17.6668 6.50004 17.7393 6.29426 17.8842 6.08271C18.0282 5.87204 18.1891 5.73337 18.3668 5.66671C19.0113 5.44448 19.6557 5.27782 20.3002 5.16671C20.9446 5.0556 21.6224 5.00004 22.3335 5.00004C22.7779 5.00004 23.2171 5.0276 23.6508 5.08271C24.0837 5.13871 24.5113 5.21115 24.9335 5.30004C25.1335 5.34448 25.3055 5.4556 25.4495 5.63337C25.5944 5.81115 25.6668 6.01115 25.6668 6.23337C25.6668 6.61115 25.5446 6.88893 25.3002 7.06671C25.0557 7.24448 24.7446 7.28893 24.3668 7.20004C24.0557 7.13337 23.7282 7.08315 23.3842 7.04937C23.0393 7.01648 22.6891 7.00004 22.3335 7.00004C21.7557 7.00004 21.1891 7.0556 20.6335 7.16671C20.0779 7.27782 19.5446 7.42226 19.0335 7.60004C18.6335 7.7556 18.3059 7.74448 18.0508 7.56671C17.7948 7.38893 17.6668 7.10004 17.6668 6.70004ZM17.6668 14.0334C17.6668 13.8334 17.7393 13.6276 17.8842 13.416C18.0282 13.2054 18.1891 13.0667 18.3668 13C19.0113 12.7778 19.6557 12.6112 20.3002 12.5C20.9446 12.3889 21.6224 12.3334 22.3335 12.3334C22.7779 12.3334 23.2171 12.3609 23.6508 12.416C24.0837 12.472 24.5113 12.5445 24.9335 12.6334C25.1335 12.6778 25.3055 12.7889 25.4495 12.9667C25.5944 13.1445 25.6668 13.3445 25.6668 13.5667C25.6668 13.9445 25.5446 14.2223 25.3002 14.4C25.0557 14.5778 24.7446 14.6223 24.3668 14.5334C24.0557 14.4667 23.7282 14.4165 23.3842 14.3827C23.0393 14.3498 22.6891 14.3334 22.3335 14.3334C21.7557 14.3334 21.1891 14.3836 20.6335 14.484C20.0779 14.5836 19.5446 14.7223 19.0335 14.9C18.6335 15.0556 18.3059 15.0498 18.0508 14.8827C17.7948 14.7165 17.6668 14.4334 17.6668 14.0334ZM17.6668 10.3667C17.6668 10.1667 17.7393 9.96093 17.8842 9.74937C18.0282 9.53871 18.1891 9.40004 18.3668 9.33337C19.0113 9.11115 19.6557 8.94448 20.3002 8.83337C20.9446 8.72226 21.6224 8.66671 22.3335 8.66671C22.7779 8.66671 23.2171 8.69426 23.6508 8.74937C24.0837 8.80537 24.5113 8.87782 24.9335 8.96671C25.1335 9.01115 25.3055 9.12226 25.4495 9.30004C25.5944 9.47782 25.6668 9.67782 25.6668 9.90004C25.6668 10.2778 25.5446 10.5556 25.3002 10.7334C25.0557 10.9112 24.7446 10.9556 24.3668 10.8667C24.0557 10.8 23.7282 10.7498 23.3842 10.716C23.0393 10.6832 22.6891 10.6667 22.3335 10.6667C21.7557 10.6667 21.1891 10.7223 20.6335 10.8334C20.0779 10.9445 19.5446 11.0889 19.0335 11.2667C18.6335 11.4223 18.3059 11.4112 18.0508 11.2334C17.7948 11.0556 17.6668 10.7667 17.6668 10.3667ZM16.3335 17.7334C17.3113 17.2667 18.2948 16.9165 19.2842 16.6827C20.2726 16.4498 21.2891 16.3334 22.3335 16.3334C23.1335 16.3334 23.9171 16.4 24.6842 16.5334C25.4504 16.6667 26.2224 16.8667 27.0002 17.1334V3.93337C26.2668 3.62226 25.5059 3.38893 24.7175 3.23337C23.9282 3.07782 23.1335 3.00004 22.3335 3.00004C21.2891 3.00004 20.2557 3.13337 19.2335 3.40004C18.2113 3.66671 17.2446 4.06671 16.3335 4.60004V17.7334ZM15.0002 20.9667C14.6891 20.9667 14.3948 20.928 14.1175 20.8507C13.8393 20.7725 13.5779 20.6667 13.3335 20.5334C12.4668 20.0223 11.5557 19.6392 10.6002 19.384C9.64461 19.128 8.66683 19 7.66683 19C6.7335 19 5.81705 19.1223 4.9175 19.3667C4.01705 19.6112 3.15572 19.9556 2.3335 20.4C1.86683 20.6445 1.41705 20.6334 0.984163 20.3667C0.550385 20.1 0.333496 19.7111 0.333496 19.2V3.13337C0.333496 2.88893 0.394829 2.6556 0.517496 2.43337C0.639274 2.21115 0.822385 2.04448 1.06683 1.93337C2.08905 1.40004 3.15572 1.00004 4.26683 0.733374C5.37794 0.466708 6.51127 0.333374 7.66683 0.333374C8.95572 0.333374 10.2171 0.500041 11.4508 0.833374C12.6837 1.16671 13.8668 1.66671 15.0002 2.33337C16.1335 1.66671 17.3171 1.16671 18.5508 0.833374C19.7837 0.500041 21.0446 0.333374 22.3335 0.333374C23.4891 0.333374 24.6224 0.466708 25.7335 0.733374C26.8446 1.00004 27.9113 1.40004 28.9335 1.93337C29.1779 2.04448 29.3615 2.21115 29.4842 2.43337C29.6059 2.6556 29.6668 2.88893 29.6668 3.13337V19.2C29.6668 19.7111 29.4504 20.1 29.0175 20.3667C28.5837 20.6334 28.1335 20.6445 27.6668 20.4C26.8446 19.9556 25.9833 19.6112 25.0828 19.3667C24.1833 19.1223 23.2668 19 22.3335 19C21.3335 19 20.3557 19.128 19.4002 19.384C18.4446 19.6392 17.5335 20.0223 16.6668 20.5334C16.4224 20.6667 16.1615 20.7725 15.8842 20.8507C15.6059 20.928 15.3113 20.9667 15.0002 20.9667Z" fill="#FFFFFE"/>
</svg>
