<svg width="32" height="32" viewBox="0 0 32 32" fill="none" xmlns="http://www.w3.org/2000/svg">
<path d="M29.2269 8.82667C29.0916 8.50087 28.8327 8.24197 28.5069 8.10667C28.3466 8.03835 28.1745 8.00211 28.0002 8H21.3336C20.98 8 20.6408 8.14048 20.3908 8.39052C20.1407 8.64057 20.0002 8.97971 20.0002 9.33333C20.0002 9.68696 20.1407 10.0261 20.3908 10.2761C20.6408 10.5262 20.98 10.6667 21.3336 10.6667H24.7869L17.3336 18.12L12.9469 13.72C12.823 13.595 12.6755 13.4958 12.513 13.4281C12.3505 13.3605 12.1763 13.3256 12.0002 13.3256C11.8242 13.3256 11.65 13.3605 11.4875 13.4281C11.325 13.4958 11.1775 13.595 11.0536 13.72L3.05358 21.72C2.92861 21.844 2.82941 21.9914 2.76172 22.1539C2.69403 22.3164 2.65918 22.4907 2.65918 22.6667C2.65918 22.8427 2.69403 23.017 2.76172 23.1794C2.82941 23.3419 2.92861 23.4894 3.05358 23.6133C3.17753 23.7383 3.325 23.8375 3.48748 23.9052C3.64995 23.9729 3.82423 24.0077 4.00024 24.0077C4.17626 24.0077 4.35053 23.9729 4.51301 23.9052C4.67549 23.8375 4.82296 23.7383 4.94691 23.6133L12.0002 16.5467L16.3869 20.9467C16.5109 21.0716 16.6583 21.1708 16.8208 21.2385C16.9833 21.3062 17.1576 21.3411 17.3336 21.3411C17.5096 21.3411 17.6839 21.3062 17.8463 21.2385C18.0088 21.1708 18.1563 21.0716 18.2802 20.9467L26.6669 12.5467V16C26.6669 16.3536 26.8074 16.6928 27.0574 16.9428C27.3075 17.1929 27.6466 17.3333 28.0002 17.3333C28.3539 17.3333 28.693 17.1929 28.9431 16.9428C29.1931 16.6928 29.3336 16.3536 29.3336 16V9.33333C29.3315 9.1591 29.2952 8.98696 29.2269 8.82667Z" fill="white"/>
</svg>
